<?xml version="1.0" encoding="utf-8"?>
<!-- Generator: Adobe Illustrator 23.0.1, SVG Export Plug-In . SVG Version: 6.00 Build 0)  -->
<svg version="1.1" id="Calque_1" xmlns="http://www.w3.org/2000/svg" xmlns:xlink="http://www.w3.org/1999/xlink" x="0px" y="0px"
	 viewBox="0 0 50 50" style="enable-background:new 0 0 50 50;" xml:space="preserve">
<style type="text/css">
	.st0{fill:#50E3C2;}
	.st1{fill:#2B2B2B;}
	.st2{fill:none;stroke:#2B2B2B;stroke-width:2;stroke-linecap:round;stroke-miterlimit:10;}
	.st3{fill:none;stroke:#2B2B2B;stroke-width:2;stroke-linecap:round;stroke-linejoin:round;stroke-miterlimit:10;}
	.st4{fill:none;stroke:#2B2B2B;stroke-width:2.183;stroke-linecap:round;stroke-miterlimit:10;}
	.st5{fill:none;stroke:#2B2B2B;stroke-width:2;stroke-miterlimit:10;}
	.st6{fill:#FFFFFF;}
	.st7{fill:none;stroke:#B4AFFF;stroke-width:2.5;stroke-linecap:round;stroke-miterlimit:10;}
	.st8{fill:none;stroke:#B4AFFF;stroke-width:2.5;stroke-linecap:round;stroke-linejoin:round;stroke-miterlimit:10;}
	.st9{fill:none;stroke:#6C63FF;stroke-width:2.5;stroke-linecap:round;stroke-linejoin:round;stroke-miterlimit:10;}
	.st10{fill:#6C63FF;}
	.st11{fill:none;stroke:#FFFFFF;stroke-width:2.5;stroke-linecap:round;stroke-linejoin:round;stroke-miterlimit:10;}
	.st12{fill:none;stroke:#FFFFFF;stroke-width:2.5;stroke-linecap:round;stroke-miterlimit:10;}
	.st13{fill:none;stroke:#2B2B2B;stroke-width:2.5;stroke-linecap:round;stroke-miterlimit:10;}
	.st14{fill:none;stroke:#2B2B2B;stroke-width:2.5;stroke-linecap:round;stroke-linejoin:round;stroke-miterlimit:10;}
	.st15{fill:none;stroke:#6C63FF;stroke-width:2.5;stroke-linecap:round;stroke-miterlimit:10;}
	.st16{fill:none;stroke:#6C63FF;stroke-width:3.3524;stroke-linecap:round;stroke-miterlimit:10;}
	.st17{fill:none;stroke:#FFFFFF;stroke-width:1.9218;stroke-linecap:round;stroke-miterlimit:10;}
	.st18{fill:#FBB429;}
</style>
<g>
	<path class="st0" d="M21.59,21.72c-2.11-0.83-2.84-3.48-1.4-5.23c5.05-6.11,22.76-12.47,22.38,2.58
		c-0.16,6.27-1.23,10.16-2.63,12.52c-2.12,3.56-7.4,3.06-8.96-0.78C28.71,25.25,24.2,22.75,21.59,21.72z"/>
	<g>
		<path class="st2" d="M11,13.8c0-3.76,3.04-6.8,6.8-6.8s6.8,3.04,6.8,6.8s-3.04,6.8-6.8,6.8c-0.83,0-1.63-0.15-2.37-0.42"/>
		<path class="st2" d="M11,13.64v20.38c0,3.27,2.65,5.93,5.93,5.93L42,40.11"/>
		<path class="st2" d="M19.54,33.37c1.46-4.53,5.86-7.82,11.08-7.82c5.2,0,9.59,3.27,11.06,7.77"/>
		<line class="st2" x1="20.71" y1="24.43" x2="20.71" y2="30.83"/>
	</g>
</g>
</svg>
