<?xml version="1.0" encoding="utf-8"?>
<!-- Generator: Adobe Illustrator 23.0.1, SVG Export Plug-In . SVG Version: 6.00 Build 0)  -->
<svg version="1.1" id="Calque_1" xmlns="http://www.w3.org/2000/svg" xmlns:xlink="http://www.w3.org/1999/xlink" x="0px" y="0px"
	 viewBox="0 0 50 50" style="enable-background:new 0 0 50 50;" xml:space="preserve">
<style type="text/css">
	.st0{fill:#50E3C2;}
	.st1{fill:#2B2B2B;}
	.st2{fill:none;stroke:#2B2B2B;stroke-width:2;stroke-linecap:round;stroke-miterlimit:10;}
	.st3{fill:none;stroke:#2B2B2B;stroke-width:2;stroke-linecap:round;stroke-linejoin:round;stroke-miterlimit:10;}
	.st4{fill:none;stroke:#2B2B2B;stroke-width:2.183;stroke-linecap:round;stroke-miterlimit:10;}
	.st5{fill:none;stroke:#2B2B2B;stroke-width:2;stroke-miterlimit:10;}
	.st6{fill:#FFFFFF;}
	.st7{fill:none;stroke:#B4AFFF;stroke-width:2.5;stroke-linecap:round;stroke-miterlimit:10;}
	.st8{fill:none;stroke:#B4AFFF;stroke-width:2.5;stroke-linecap:round;stroke-linejoin:round;stroke-miterlimit:10;}
	.st9{fill:none;stroke:#6C63FF;stroke-width:2.5;stroke-linecap:round;stroke-linejoin:round;stroke-miterlimit:10;}
	.st10{fill:#6C63FF;}
	.st11{fill:none;stroke:#FFFFFF;stroke-width:2.5;stroke-linecap:round;stroke-linejoin:round;stroke-miterlimit:10;}
	.st12{fill:none;stroke:#FFFFFF;stroke-width:2.5;stroke-linecap:round;stroke-miterlimit:10;}
	.st13{fill:none;stroke:#2B2B2B;stroke-width:2.5;stroke-linecap:round;stroke-miterlimit:10;}
	.st14{fill:none;stroke:#2B2B2B;stroke-width:2.5;stroke-linecap:round;stroke-linejoin:round;stroke-miterlimit:10;}
	.st15{fill:none;stroke:#6C63FF;stroke-width:2.5;stroke-linecap:round;stroke-miterlimit:10;}
	.st16{fill:none;stroke:#6C63FF;stroke-width:3.3524;stroke-linecap:round;stroke-miterlimit:10;}
	.st17{fill:none;stroke:#FFFFFF;stroke-width:1.9218;stroke-linecap:round;stroke-miterlimit:10;}
	.st18{fill:#FBB429;}
</style>
<g>
	<circle class="st10" cx="25.5" cy="24.5" r="21.5"/>
	<g>
		<path class="st6" d="M27.62,26.45c-0.59,0.59-0.89,1.51-0.95,2.43c-0.18,0.65-0.77,1.1-1.45,1.1c-0.65,0-1.24-0.44-1.42-1.1
			c-0.06-1.57,0.47-3.11,1.42-4.2l2.55-2.6c0.47-0.53,0.71-1.21,0.71-1.92c0-1.66-1.33-3.02-2.99-3.02c-1.66,0-2.99,1.36-3.08,3.4
			c-0.15,0.62-0.74,1.07-1.42,1.07c-0.8,0-1.45-0.65-1.45-1.45c0-3.32,2.66-5.98,5.95-5.98c3.29,0,5.98,2.66,5.98,5.98
			c0,1.42-0.53,2.78-1.45,3.88L27.62,26.45z M26.25,34.39c0.3-0.27,0.44-0.65,0.44-1.04s-0.15-0.74-0.44-1.04
			c-0.27-0.27-0.65-0.41-1.04-0.41c-0.38,0-0.74,0.15-1.04,0.41c-0.27,0.3-0.41,0.65-0.41,1.04s0.15,0.77,0.41,1.04
			c0.3,0.3,0.65,0.44,1.04,0.44C25.6,34.83,25.99,34.68,26.25,34.39z"/>
	</g>
</g>
</svg>
