<?xml version="1.0" encoding="utf-8"?>
<!-- Generator: Adobe Illustrator 23.0.1, SVG Export Plug-In . SVG Version: 6.00 Build 0)  -->
<svg version="1.1" id="Calque_1" xmlns="http://www.w3.org/2000/svg" xmlns:xlink="http://www.w3.org/1999/xlink" x="0px" y="0px"
	 viewBox="0 0 50 50" style="enable-background:new 0 0 50 50;" xml:space="preserve">
<style type="text/css">
	.st0{fill:#50E3C2;}
	.st1{fill:#2B2B2B;}
	.st2{fill:none;stroke:#2B2B2B;stroke-width:2;stroke-linecap:round;stroke-miterlimit:10;}
	.st3{fill:none;stroke:#2B2B2B;stroke-width:2;stroke-linecap:round;stroke-linejoin:round;stroke-miterlimit:10;}
	.st4{fill:none;stroke:#2B2B2B;stroke-width:2.183;stroke-linecap:round;stroke-miterlimit:10;}
	.st5{fill:none;stroke:#2B2B2B;stroke-width:2;stroke-miterlimit:10;}
	.st6{fill:#FFFFFF;}
	.st7{fill:none;stroke:#B4AFFF;stroke-width:2.5;stroke-linecap:round;stroke-miterlimit:10;}
	.st8{fill:none;stroke:#B4AFFF;stroke-width:2.5;stroke-linecap:round;stroke-linejoin:round;stroke-miterlimit:10;}
	.st9{fill:none;stroke:#6C63FF;stroke-width:2.5;stroke-linecap:round;stroke-linejoin:round;stroke-miterlimit:10;}
	.st10{fill:#6C63FF;}
	.st11{fill:none;stroke:#FFFFFF;stroke-width:2.5;stroke-linecap:round;stroke-linejoin:round;stroke-miterlimit:10;}
	.st12{fill:none;stroke:#FFFFFF;stroke-width:2.5;stroke-linecap:round;stroke-miterlimit:10;}
	.st13{fill:none;stroke:#2B2B2B;stroke-width:2.5;stroke-linecap:round;stroke-miterlimit:10;}
	.st14{fill:none;stroke:#2B2B2B;stroke-width:2.5;stroke-linecap:round;stroke-linejoin:round;stroke-miterlimit:10;}
	.st15{fill:none;stroke:#6C63FF;stroke-width:2.5;stroke-linecap:round;stroke-miterlimit:10;}
	.st16{fill:none;stroke:#6C63FF;stroke-width:3.3524;stroke-linecap:round;stroke-miterlimit:10;}
	.st17{fill:none;stroke:#FFFFFF;stroke-width:1.9218;stroke-linecap:round;stroke-miterlimit:10;}
	.st18{fill:#FBB429;}
</style>
<g>
	<path class="st0" d="M21.59,21.72c-2.11-0.83-2.84-3.48-1.4-5.23c5.05-6.11,22.76-12.47,22.38,2.58
		c-0.16,6.27-1.23,10.16-2.63,12.52c-2.12,3.56-7.4,3.06-8.96-0.78C28.71,25.25,24.2,22.75,21.59,21.72z"/>
	<path class="st2" d="M31.46,31.12c-6.67,5.34-6.12,11.35-6.12,11.36c0.03,0.3-0.2,0.57-0.5,0.59c-0.15,0.01-0.3-0.04-0.41-0.14
		c-7.51-6.57-9.75-12.96-9.11-18c0.24-1.96,0.95-3.83,2.08-5.46c1.03-1.5,2.4-2.73,4-3.61c3.07-1.66,6.74-1.79,9.77,0.23
		c0.78,0.52,1.47,1.15,2.05,1.88c1.17,1.46,1.87,3.23,2,5.09c0.14,1.99-0.39,3.97-1.5,5.62C33.1,29.6,32.34,30.42,31.46,31.12
		L31.46,31.12z"/>
	<line class="st2" x1="42" y1="13.25" x2="33.5" y2="13.25"/>
	<line class="st2" x1="37.75" y1="17.5" x2="37.75" y2="9"/>
</g>
</svg>
