<?xml version="1.0" encoding="utf-8"?>
<!-- Generator: Adobe Illustrator 23.0.1, SVG Export Plug-In . SVG Version: 6.00 Build 0)  -->
<svg version="1.1" id="Calque_1" xmlns="http://www.w3.org/2000/svg" xmlns:xlink="http://www.w3.org/1999/xlink" x="0px" y="0px"
	 viewBox="0 0 50 50" style="enable-background:new 0 0 50 50;" xml:space="preserve">
<style type="text/css">
	.st0{fill:#50E3C2;}
	.st1{fill:#2B2B2B;}
	.st2{fill:none;stroke:#2B2B2B;stroke-width:2;stroke-linecap:round;stroke-miterlimit:10;}
	.st3{fill:none;stroke:#2B2B2B;stroke-width:2;stroke-linecap:round;stroke-linejoin:round;stroke-miterlimit:10;}
	.st4{fill:none;stroke:#2B2B2B;stroke-width:2.183;stroke-linecap:round;stroke-miterlimit:10;}
	.st5{fill:none;stroke:#2B2B2B;stroke-width:2;stroke-miterlimit:10;}
	.st6{fill:#FFFFFF;}
	.st7{fill:none;stroke:#B4AFFF;stroke-width:2.5;stroke-linecap:round;stroke-miterlimit:10;}
	.st8{fill:none;stroke:#B4AFFF;stroke-width:2.5;stroke-linecap:round;stroke-linejoin:round;stroke-miterlimit:10;}
	.st9{fill:none;stroke:#6C63FF;stroke-width:2.5;stroke-linecap:round;stroke-linejoin:round;stroke-miterlimit:10;}
	.st10{fill:#6C63FF;}
	.st11{fill:none;stroke:#FFFFFF;stroke-width:2.5;stroke-linecap:round;stroke-linejoin:round;stroke-miterlimit:10;}
	.st12{fill:none;stroke:#FFFFFF;stroke-width:2.5;stroke-linecap:round;stroke-miterlimit:10;}
	.st13{fill:none;stroke:#2B2B2B;stroke-width:2.5;stroke-linecap:round;stroke-miterlimit:10;}
	.st14{fill:none;stroke:#2B2B2B;stroke-width:2.5;stroke-linecap:round;stroke-linejoin:round;stroke-miterlimit:10;}
	.st15{fill:none;stroke:#6C63FF;stroke-width:2.5;stroke-linecap:round;stroke-miterlimit:10;}
	.st16{fill:none;stroke:#6C63FF;stroke-width:3.3524;stroke-linecap:round;stroke-miterlimit:10;}
	.st17{fill:none;stroke:#FFFFFF;stroke-width:1.9218;stroke-linecap:round;stroke-miterlimit:10;}
	.st18{fill:#FBB429;}
</style>
<g>
	<path class="st0" d="M21.59,21.72c-2.11-0.83-2.84-3.48-1.4-5.23c5.05-6.11,22.76-12.47,22.38,2.58
		c-0.16,6.27-1.23,10.16-2.63,12.52c-2.12,3.56-7.4,3.06-8.96-0.78C28.71,25.25,24.2,22.75,21.59,21.72z"/>
	<path class="st2" d="M30.95,17.17c4.62-0.51,6.12-3.43,6.12-3.43c0.08-0.15,0.26-0.2,0.4-0.13c0.07,0.04,0.13,0.11,0.15,0.19
		c1.54,5.21,0.7,8.8-1.06,10.92c-0.68,0.83-1.56,1.48-2.55,1.9c-0.91,0.39-1.9,0.55-2.89,0.49c-1.89-0.13-3.62-1.14-4.42-2.95
		c-0.21-0.46-0.34-0.95-0.39-1.46c-0.11-1.01,0.09-2.03,0.57-2.92c0.52-0.95,1.34-1.71,2.33-2.14
		C29.76,17.39,30.35,17.23,30.95,17.17L30.95,17.17z"/>
	<g>
		<path class="st2" d="M42,40c0-5.52-4.48-10-10-10s-10,4.48-10,10"/>
	</g>
	<path class="st2" d="M15.06,19.13c4.16-0.46,5.51-3.09,5.51-3.09c0.07-0.13,0.23-0.18,0.36-0.11c0.07,0.03,0.11,0.09,0.13,0.17
		c1.38,4.69,0.63,7.92-0.96,9.83c-0.61,0.75-1.4,1.33-2.29,1.71c-0.82,0.35-1.71,0.5-2.6,0.44c-1.7-0.12-3.26-1.03-3.98-2.66
		c-0.18-0.42-0.3-0.86-0.35-1.31c-0.1-0.91,0.08-1.83,0.51-2.63c0.46-0.86,1.2-1.54,2.1-1.93C13.98,19.33,14.51,19.19,15.06,19.13
		L15.06,19.13z"/>
	<g>
		<path class="st2" d="M19.87,31.87C18.69,31.31,17.38,31,16,31c-4.97,0-9,4.03-9,9"/>
	</g>
</g>
</svg>
