<?xml version="1.0" encoding="utf-8"?>
<!-- Generator: Adobe Illustrator 23.0.1, SVG Export Plug-In . SVG Version: 6.00 Build 0)  -->
<svg version="1.1" id="Calque_1" xmlns="http://www.w3.org/2000/svg" xmlns:xlink="http://www.w3.org/1999/xlink" x="0px" y="0px"
	 viewBox="0 0 50 50" style="enable-background:new 0 0 50 50;" xml:space="preserve">
<style type="text/css">
	.st0{fill:#50E3C2;}
	.st1{fill:#2B2B2B;}
	.st2{fill:none;stroke:#2B2B2B;stroke-width:2;stroke-linecap:round;stroke-miterlimit:10;}
	.st3{fill:none;stroke:#2B2B2B;stroke-width:2;stroke-linecap:round;stroke-linejoin:round;stroke-miterlimit:10;}
	.st4{fill:none;stroke:#2B2B2B;stroke-width:2.183;stroke-linecap:round;stroke-miterlimit:10;}
	.st5{fill:none;stroke:#2B2B2B;stroke-width:2;stroke-miterlimit:10;}
	.st6{fill:#FFFFFF;}
	.st7{fill:none;stroke:#B4AFFF;stroke-width:2.5;stroke-linecap:round;stroke-miterlimit:10;}
	.st8{fill:none;stroke:#B4AFFF;stroke-width:2.5;stroke-linecap:round;stroke-linejoin:round;stroke-miterlimit:10;}
	.st9{fill:none;stroke:#6C63FF;stroke-width:2.5;stroke-linecap:round;stroke-linejoin:round;stroke-miterlimit:10;}
	.st10{fill:#6C63FF;}
	.st11{fill:none;stroke:#FFFFFF;stroke-width:2.5;stroke-linecap:round;stroke-linejoin:round;stroke-miterlimit:10;}
	.st12{fill:none;stroke:#FFFFFF;stroke-width:2.5;stroke-linecap:round;stroke-miterlimit:10;}
	.st13{fill:none;stroke:#2B2B2B;stroke-width:2.5;stroke-linecap:round;stroke-miterlimit:10;}
	.st14{fill:none;stroke:#2B2B2B;stroke-width:2.5;stroke-linecap:round;stroke-linejoin:round;stroke-miterlimit:10;}
	.st15{fill:none;stroke:#6C63FF;stroke-width:2.5;stroke-linecap:round;stroke-miterlimit:10;}
	.st16{fill:none;stroke:#6C63FF;stroke-width:3.3524;stroke-linecap:round;stroke-miterlimit:10;}
	.st17{fill:none;stroke:#FFFFFF;stroke-width:1.9218;stroke-linecap:round;stroke-miterlimit:10;}
	.st18{fill:#FBB429;}
</style>
<g>
	<path class="st0" d="M21.59,21.72c-2.11-0.83-2.84-3.48-1.4-5.23c5.05-6.11,22.76-12.47,22.38,2.58
		c-0.16,6.27-1.23,10.16-2.63,12.52c-2.12,3.56-7.4,3.06-8.96-0.78C28.71,25.25,24.2,22.75,21.59,21.72z"/>
	<g>
		<path class="st5" d="M32.83,42.02l-15.18-0.04c-2.68-0.01-4.86-2.2-4.85-4.88l0.01-6.13c0.01-6.14,5.05-11.16,11.2-11.14
			l2.58,0.01c6.14,0.01,11.16,5.05,11.14,11.2l-0.01,6.13C37.7,39.84,35.51,42.02,32.83,42.02z"/>
		<path class="st2" d="M21.21,19.75c0,0,12.01,0.03,13.52,0.03c1.51,0,5.29-0.74,5.3-5.27"/>
		<path class="st3" d="M28.69,19.84l-7.55-0.02l-2.64-5.71c-0.55-1.65,0.69-3.36,2.43-3.35l8.02,0.02c1.74,0,2.97,1.71,2.41,3.37
			L28.69,19.84z"/>
	</g>
</g>
</svg>
