<?xml version="1.0" encoding="utf-8"?>
<!-- Generator: Adobe Illustrator 23.0.1, SVG Export Plug-In . SVG Version: 6.00 Build 0)  -->
<svg version="1.1" id="Calque_1" xmlns="http://www.w3.org/2000/svg" xmlns:xlink="http://www.w3.org/1999/xlink" x="0px" y="0px"
	 viewBox="0 0 50 50" style="enable-background:new 0 0 50 50;" xml:space="preserve">
<style type="text/css">
	.st0{fill:#50E3C2;}
	.st1{fill:#2B2B2B;}
	.st2{fill:none;stroke:#2B2B2B;stroke-width:2;stroke-linecap:round;stroke-miterlimit:10;}
	.st3{fill:none;stroke:#2B2B2B;stroke-width:2;stroke-linecap:round;stroke-linejoin:round;stroke-miterlimit:10;}
	.st4{fill:none;stroke:#2B2B2B;stroke-width:2.183;stroke-linecap:round;stroke-miterlimit:10;}
	.st5{fill:none;stroke:#2B2B2B;stroke-width:2;stroke-miterlimit:10;}
	.st6{fill:#FFFFFF;}
	.st7{fill:none;stroke:#B4AFFF;stroke-width:2.5;stroke-linecap:round;stroke-miterlimit:10;}
	.st8{fill:none;stroke:#B4AFFF;stroke-width:2.5;stroke-linecap:round;stroke-linejoin:round;stroke-miterlimit:10;}
	.st9{fill:none;stroke:#6C63FF;stroke-width:2.5;stroke-linecap:round;stroke-linejoin:round;stroke-miterlimit:10;}
	.st10{fill:#6C63FF;}
	.st11{fill:none;stroke:#FFFFFF;stroke-width:2.5;stroke-linecap:round;stroke-linejoin:round;stroke-miterlimit:10;}
	.st12{fill:none;stroke:#FFFFFF;stroke-width:2.5;stroke-linecap:round;stroke-miterlimit:10;}
	.st13{fill:none;stroke:#2B2B2B;stroke-width:2.5;stroke-linecap:round;stroke-miterlimit:10;}
	.st14{fill:none;stroke:#2B2B2B;stroke-width:2.5;stroke-linecap:round;stroke-linejoin:round;stroke-miterlimit:10;}
	.st15{fill:none;stroke:#6C63FF;stroke-width:2.5;stroke-linecap:round;stroke-miterlimit:10;}
	.st16{fill:none;stroke:#6C63FF;stroke-width:3.3524;stroke-linecap:round;stroke-miterlimit:10;}
	.st17{fill:none;stroke:#FFFFFF;stroke-width:1.9218;stroke-linecap:round;stroke-miterlimit:10;}
	.st18{fill:#FBB429;}
</style>
<g>
	<circle class="st1" cx="25.5" cy="25.5" r="17.5"/>
	<g>
		<g>
			<path class="st17" d="M30.35,35.01l-9.5-0.02c-1.56,0-2.83-1.28-2.82-2.84l0.01-4.16c0.01-3.57,2.94-6.49,6.51-6.48l2.17,0.01
				c3.57,0.01,6.49,2.94,6.48,6.51l-0.01,4.16C33.19,33.74,31.91,35.01,30.35,35.01z"/>
			<path class="st17" d="M23.15,21.46c0,0,7.3,0.02,8.22,0.02s3.22-0.45,3.22-3.21"/>
			<path class="st17" d="M27.7,21.52l-4.59-0.01l-1.61-3.47c-0.33-1.01,0.42-2.04,1.48-2.04L27.86,16c1.06,0,1.81,1.04,1.47,2.05
				L27.7,21.52z"/>
		</g>
	</g>
</g>
</svg>
