<?xml version="1.0" encoding="utf-8"?>
<!-- Generator: Adobe Illustrator 23.0.1, SVG Export Plug-In . SVG Version: 6.00 Build 0)  -->
<svg version="1.1" id="Calque_1" xmlns="http://www.w3.org/2000/svg" xmlns:xlink="http://www.w3.org/1999/xlink" x="0px" y="0px"
	 viewBox="0 0 50 50" style="enable-background:new 0 0 50 50;" xml:space="preserve">
<style type="text/css">
	.st0{fill:#50E3C2;}
	.st1{fill:#2B2B2B;}
	.st2{fill:none;stroke:#2B2B2B;stroke-width:2;stroke-linecap:round;stroke-miterlimit:10;}
	.st3{fill:none;stroke:#2B2B2B;stroke-width:2;stroke-linecap:round;stroke-linejoin:round;stroke-miterlimit:10;}
	.st4{fill:none;stroke:#2B2B2B;stroke-width:2.183;stroke-linecap:round;stroke-miterlimit:10;}
	.st5{fill:none;stroke:#2B2B2B;stroke-width:2;stroke-miterlimit:10;}
	.st6{fill:#FFFFFF;}
	.st7{fill:none;stroke:#B4AFFF;stroke-width:2.5;stroke-linecap:round;stroke-miterlimit:10;}
	.st8{fill:none;stroke:#B4AFFF;stroke-width:2.5;stroke-linecap:round;stroke-linejoin:round;stroke-miterlimit:10;}
	.st9{fill:none;stroke:#6C63FF;stroke-width:2.5;stroke-linecap:round;stroke-linejoin:round;stroke-miterlimit:10;}
	.st10{fill:#6C63FF;}
	.st11{fill:none;stroke:#FFFFFF;stroke-width:2.5;stroke-linecap:round;stroke-linejoin:round;stroke-miterlimit:10;}
	.st12{fill:none;stroke:#FFFFFF;stroke-width:2.5;stroke-linecap:round;stroke-miterlimit:10;}
	.st13{fill:none;stroke:#2B2B2B;stroke-width:2.5;stroke-linecap:round;stroke-miterlimit:10;}
	.st14{fill:none;stroke:#2B2B2B;stroke-width:2.5;stroke-linecap:round;stroke-linejoin:round;stroke-miterlimit:10;}
	.st15{fill:none;stroke:#6C63FF;stroke-width:2.5;stroke-linecap:round;stroke-miterlimit:10;}
	.st16{fill:none;stroke:#6C63FF;stroke-width:3.3524;stroke-linecap:round;stroke-miterlimit:10;}
	.st17{fill:none;stroke:#FFFFFF;stroke-width:1.9218;stroke-linecap:round;stroke-miterlimit:10;}
	.st18{fill:#FBB429;}
</style>
<g>
	<path class="st0" d="M21.59,21.53c-2.09-0.87-2.78-3.54-1.3-5.26c5.17-6.01,23.01-12.02,22.32,3.02
		c-0.28,6.26-1.43,10.13-2.88,12.47c-2.19,3.52-7.46,2.91-8.94-0.96C28.64,25.21,24.18,22.61,21.59,21.53z"/>
	<path class="st2" d="M24.53,11.03c6.47-0.71,8.57-4.8,8.57-4.8c0.11-0.2,0.36-0.28,0.56-0.18c0.1,0.05,0.18,0.15,0.21,0.26
		c2.15,7.29,0.98,12.31-1.49,15.29c-0.95,1.16-2.18,2.07-3.56,2.66c-1.28,0.54-2.66,0.78-4.05,0.69c-2.65-0.19-5.07-1.6-6.19-4.14
		c-0.29-0.65-0.47-1.34-0.55-2.04c-0.16-1.41,0.12-2.84,0.79-4.09c0.72-1.34,1.87-2.39,3.26-3C22.86,11.34,23.69,11.12,24.53,11.03
		L24.53,11.03z"/>
	<g>
		<path class="st2" d="M40,43c0-7.73-6.27-14-14-14s-14,6.27-14,14"/>
	</g>
</g>
</svg>
