<?xml version="1.0" encoding="utf-8"?>
<!-- Generator: Adobe Illustrator 23.0.1, SVG Export Plug-In . SVG Version: 6.00 Build 0)  -->
<svg version="1.1" id="Calque_1" xmlns="http://www.w3.org/2000/svg" xmlns:xlink="http://www.w3.org/1999/xlink" x="0px" y="0px"
	 viewBox="0 0 130 130" style="enable-background:new 0 0 130 130;" xml:space="preserve">
<style type="text/css">
	.st0{fill:#2B2B2B;}
</style>
<g transform="translate(-1 -1)">
	<g>
		<g>
			<path class="st0" d="M39.57,53.82l-7.01,2.4c-2.2-7.94,1.49-13.6,3.98-17.41c0.25-0.37,0.27-0.85,0.07-1.24
				c-0.2-0.4-0.6-0.66-1.04-0.68s-0.87,0.19-1.11,0.56c-1.84,2.6-3.28,5.47-4.27,8.5c-1.85-3.56-6.02-5.24-9.82-3.94l-2.91,1
				c-0.31,0.11-0.57,0.33-0.71,0.63c-0.14,0.3-0.17,0.64-0.06,0.95l1,2.91c1.46,4.23,6.06,6.48,10.3,5.04l1.43-0.49
				c0.06,1.69,0.33,3.36,0.8,4.98l-7.1,2.44c-4,1.59-5.97,6.11-4.41,10.13l0.12,0.36c0.34,1.04,1.28,1.75,2.37,1.8l2.29,0.06
				c0.96,0.02,1.93-0.1,2.86-0.36l4.42,4.88c0.58,0.65,0.78,1.55,0.54,2.38l-1.85,6.19c-0.5,1.69-0.07,3.51,1.12,4.8l5.5,5.92
				c0.4,0.43,0.44,1.09,0.1,1.57l-5.03,7.05c-0.02,0.03-0.02,0.06-0.04,0.09c-0.16,0.28-0.21,0.62-0.14,0.94
				c0.01,0.03,0,0.07,0.01,0.1l0.4,1.18c1.79,5.19,7.44,7.95,12.63,6.18l10.58-3.63c5.19-1.79,7.95-7.44,6.18-12.63l-0.4-1.18
				c-0.01-0.02-0.02-0.03-0.03-0.05c-0.13-0.29-0.35-0.52-0.63-0.66c-0.03-0.01-0.05-0.04-0.07-0.05l-7.48-2.85
				c-0.48-0.18-0.79-0.64-0.8-1.15l-0.11-12.27c-0.01-1.48-0.69-2.88-1.84-3.82l-5.76-4.67c-0.79-0.65-1.11-1.72-0.8-2.7l1.11-3.42
				l3.5-0.21c0.75-0.04,1.43-0.44,1.84-1.06c0.45-0.7,0.56-1.56,0.28-2.35l-0.32-0.94C48.04,54.98,43.71,52.61,39.57,53.82z
				 M27.18,50.18c-2.94,1-6.13-0.56-7.14-3.49l-0.6-1.74l1.74-0.6c2.94-1,6.13,0.56,7.14,3.49l0.6,1.74L27.18,50.18L27.18,50.18z
				 M58.42,97.28c1.33,3.9-0.74,8.13-4.63,9.47l-10.58,3.63c-3.9,1.33-8.13-0.74-9.47-4.63l4.43-1.52c0.73-0.25,1.52-0.3,2.28-0.14
				l1.37,0.29c3.04,0.65,6.14-0.86,7.5-3.66c0.58-1.19,1.68-2.05,2.97-2.31l6.09-1.27L58.42,97.28L58.42,97.28z M40.49,66.32
				c-0.62,1.95,0.01,4.09,1.6,5.39l5.76,4.67c0.58,0.47,0.91,1.17,0.92,1.91l0.11,12.27c0.01,1.54,0.96,2.91,2.4,3.45l3.52,1.34
				l-3.01,0.63c-2.05,0.43-3.79,1.78-4.7,3.66c-0.86,1.77-2.82,2.72-4.74,2.31l-1.37-0.29c-1.2-0.26-2.45-0.18-3.61,0.22l-1.94,0.66
				l2.78-3.89c1.02-1.44,0.9-3.4-0.3-4.7l-5.5-5.92c-0.6-0.65-0.81-1.56-0.56-2.4l1.85-6.19c0.49-1.66,0.08-3.46-1.08-4.76
				l-3.85-4.25c1.31-0.76,2.44-1.8,3.3-3.05c1.32-1.96,3.47-3.2,5.83-3.35l3.41-0.2L40.49,66.32z M46.92,59.91l0.32,0.94
				c0.02,0.07,0.02,0.12,0.04,0.13l-9.54,0.57c-3.12,0.19-5.98,1.83-7.73,4.42c-0.89,1.32-2.17,2.34-3.67,2.9l-0.02,0.01
				c-0.89,0.32-1.83,0.48-2.77,0.45l-2.27-0.05c-0.05-0.03-0.08-0.07-0.1-0.13l-0.12-0.36c-1.12-2.72,0.16-5.82,2.86-6.97
				l16.46-5.65C43.21,55.41,46.13,57.08,46.92,59.91z"/>
			<path class="st0" d="M39.06,86.8c-0.24-0.63-0.94-0.96-1.58-0.73c-0.64,0.23-0.97,0.93-0.76,1.57c0.2,0.63,0.65,1.15,1.25,1.45
				c0.6,0.29,1.29,0.33,1.91,0.1c0.65-0.23,0.99-0.94,0.77-1.6C40.42,86.94,39.71,86.59,39.06,86.8z"/>
			<path class="st0" d="M42.97,82.87c-0.65,0.22-0.99,0.93-0.77,1.58c0.22,0.65,0.93,0.99,1.58,0.77c0.63-0.2,1.15-0.65,1.45-1.25
				c0.29-0.6,0.33-1.29,0.1-1.91c-0.22-0.65-0.93-0.99-1.58-0.77C43.09,81.51,42.74,82.22,42.97,82.87z"/>
			<path class="st0" d="M38.99,78.94c-0.24-0.63-0.94-0.96-1.58-0.73s-0.97,0.93-0.76,1.57c0.2,0.63,0.65,1.15,1.25,1.45
				s1.29,0.33,1.91,0.1c0.65-0.23,0.99-0.94,0.77-1.6C40.35,79.08,39.65,78.73,38.99,78.94z"/>
		</g>
	</g>
</g>
<path class="st0" d="M109.54,34.78l-4.54-1.04l0.97-4.2l0,0c1.09,0.25,2.17-0.43,2.42-1.52l0.83-3.61c0.25-1.09-0.43-2.17-1.52-2.42
	l-13.36-3.08c-1.09-0.25-2.17,0.43-2.42,1.52l-0.83,3.62c-0.25,1.09,0.43,2.17,1.52,2.42l0,0l-0.97,4.2l-4.58-1.06
	c-2.96-0.68-5.92,1.17-6.6,4.13l-0.45,1.94c-0.14,0.62,0.24,1.23,0.86,1.38c0.62,0.14,1.23-0.24,1.38-0.86l0.45-1.94
	c0.4-1.73,2.12-2.81,3.85-2.41l22.47,5.17c1.73,0.4,2.81,2.12,2.41,3.85l-4.73,20.54c-0.4,1.73-2.12,2.81-3.85,2.41l-4-0.92
	c-0.62-0.14-1.23,0.24-1.38,0.86c-0.14,0.62,0.24,1.23,0.86,1.38l3.33,0.77l-0.26,1.11l-21.06-4.85l0.26-1.11l12.3,2.83
	c0.62,0.14,1.24-0.24,1.38-0.86c0.14-0.62-0.24-1.24-0.86-1.38l-13.05-3c-1.73-0.4-2.81-2.12-2.41-3.85l3.08-13.38
	c0.14-0.62-0.24-1.23-0.86-1.38c-0.62-0.14-1.24,0.24-1.38,0.86l-3.08,13.38c-0.56,2.44,0.6,4.89,2.69,6.05l-0.34,1.46
	c-2.34,0.01-4.46,1.62-5.01,4c-0.55,2.38,0.65,4.76,2.75,5.79l-0.32,1.38c-2.34,0.01-4.46,1.62-5.01,4
	c-0.55,2.38,0.65,4.76,2.75,5.79l-0.31,1.33l-2.01-0.46c-1.03-0.24-2.06,0.41-2.3,1.44l-0.5,2.18c-0.68,2.96,1.17,5.92,4.13,6.6
	L94.76,99c2.96,0.68,5.92-1.17,6.6-4.13l0.5-2.18c0.24-1.03-0.41-2.06-1.44-2.3l-1.93-0.44l0.31-1.35c2.3-0.05,4.38-1.65,4.92-4
	s-0.62-4.7-2.67-5.75l0.33-1.42c2.3-0.05,4.38-1.65,4.92-4c0.54-2.35-0.62-4.7-2.67-5.75l0.35-1.5c2.35-0.17,4.42-1.85,4.98-4.26
	l4.73-20.54C114.36,38.43,112.5,35.47,109.54,34.78z M94.11,21.21l12.82,2.95l-0.71,3.08L93.4,24.28L94.11,21.21z M94.86,26.98
	l8.88,2.04l-0.97,4.2l-8.88-2.04L94.86,26.98z M77.79,73.34l0.26-1.11l21.06,4.85l-0.26,1.11L77.79,73.34z M99.12,94.36
	c-0.4,1.73-2.12,2.81-3.85,2.41L72.8,91.59c-1.73-0.4-2.81-2.12-2.41-3.85l0.42-1.81l28.73,6.61L99.12,94.36z M75.2,84.59l0.28-1.2
	l21.06,4.85l-0.28,1.2L75.2,84.59z M101.49,84.09c-0.35,1.54-1.89,2.5-3.43,2.15L74.9,80.9c-1.54-0.35-2.5-1.89-2.15-3.43
	c0.35-1.54,1.89-2.5,3.43-2.15l23.15,5.33C100.88,81.01,101.84,82.55,101.49,84.09z M104.06,72.92c-0.35,1.54-1.89,2.5-3.43,2.15
	l-23.15-5.33c-1.54-0.35-2.5-1.89-2.15-3.43s1.89-2.5,3.43-2.15l23.15,5.33C103.45,69.84,104.41,71.38,104.06,72.92z"/>
</svg>
