<?xml version="1.0" encoding="utf-8"?>
<!-- Generator: Adobe Illustrator 23.0.1, SVG Export Plug-In . SVG Version: 6.00 Build 0)  -->
<svg version="1.1" id="Calque_1" xmlns="http://www.w3.org/2000/svg" xmlns:xlink="http://www.w3.org/1999/xlink" x="0px" y="0px"
	 viewBox="0 0 130 130" style="enable-background:new 0 0 130 130;" xml:space="preserve">
<style type="text/css">
	.st0{fill:#2B2B2B;}
	.st1{fill:#2B2B2B;stroke:#2B2B2B;stroke-width:0.5;stroke-miterlimit:10;}
	.st2{fill:none;stroke:#2B2C2C;stroke-width:2.126;stroke-miterlimit:10;}
	.st3{fill:none;stroke:#2B2C2C;stroke-width:2.126;stroke-linecap:round;stroke-miterlimit:10;}
	.st4{fill:none;stroke:#2B2C2C;stroke-width:2.126;stroke-linecap:round;stroke-linejoin:round;stroke-miterlimit:10;}
</style>
<g transform="translate(-1 -1)">
	<g>
		<g>
			<path class="st0" d="M-260.43,53.82l-7.01,2.4c-2.2-7.94,1.49-13.6,3.98-17.41c0.25-0.37,0.27-0.85,0.07-1.24
				s-0.6-0.66-1.04-0.68c-0.44-0.02-0.87,0.19-1.11,0.56c-1.84,2.6-3.28,5.47-4.27,8.5c-1.85-3.56-6.02-5.24-9.82-3.94l-2.91,1
				c-0.31,0.11-0.57,0.33-0.71,0.63c-0.14,0.3-0.17,0.64-0.06,0.95l1,2.91c1.46,4.23,6.06,6.48,10.3,5.04l1.43-0.49
				c0.06,1.69,0.33,3.36,0.8,4.98l-7.1,2.44c-4,1.59-5.97,6.11-4.41,10.13l0.12,0.36c0.34,1.04,1.28,1.75,2.37,1.8l2.29,0.06
				c0.96,0.02,1.93-0.1,2.86-0.36l4.42,4.88c0.58,0.65,0.78,1.55,0.54,2.38l-1.85,6.19c-0.5,1.69-0.07,3.51,1.12,4.8l5.5,5.92
				c0.4,0.43,0.44,1.09,0.1,1.57l-5.03,7.05c-0.02,0.03-0.02,0.06-0.04,0.09c-0.16,0.28-0.21,0.62-0.14,0.94
				c0.01,0.03,0,0.07,0.01,0.1l0.4,1.18c1.79,5.19,7.44,7.95,12.63,6.18l10.58-3.63c5.19-1.79,7.95-7.44,6.18-12.63l-0.4-1.18
				c-0.01-0.02-0.02-0.03-0.03-0.05c-0.13-0.29-0.35-0.52-0.63-0.66c-0.03-0.01-0.05-0.04-0.07-0.05l-7.48-2.85
				c-0.48-0.18-0.79-0.64-0.8-1.15l-0.11-12.27c-0.01-1.48-0.69-2.88-1.84-3.82l-5.76-4.67c-0.79-0.65-1.11-1.72-0.8-2.7l1.11-3.42
				l3.5-0.21c0.75-0.04,1.43-0.44,1.84-1.06c0.45-0.7,0.56-1.56,0.28-2.35l-0.32-0.94C-251.96,54.98-256.29,52.61-260.43,53.82z
				 M-272.82,50.18c-2.94,1-6.13-0.56-7.14-3.49l-0.6-1.74l1.74-0.6c2.94-1,6.13,0.56,7.14,3.49l0.6,1.74L-272.82,50.18
				L-272.82,50.18z M-241.58,97.28c1.33,3.9-0.74,8.13-4.63,9.47l-10.58,3.63c-3.9,1.33-8.13-0.74-9.47-4.63l4.43-1.52
				c0.73-0.25,1.52-0.3,2.28-0.14l1.37,0.29c3.04,0.65,6.14-0.86,7.5-3.66c0.58-1.19,1.68-2.05,2.97-2.31l6.09-1.27L-241.58,97.28
				L-241.58,97.28z M-259.51,66.32c-0.62,1.95,0.01,4.09,1.6,5.39l5.76,4.67c0.58,0.47,0.91,1.17,0.92,1.91l0.11,12.27
				c0.01,1.54,0.96,2.91,2.4,3.45l3.52,1.34l-3.01,0.63c-2.05,0.43-3.79,1.78-4.7,3.66c-0.86,1.77-2.82,2.72-4.74,2.31l-1.37-0.29
				c-1.2-0.26-2.45-0.18-3.61,0.22l-1.94,0.66l2.78-3.89c1.02-1.44,0.9-3.4-0.3-4.7l-5.5-5.92c-0.6-0.65-0.81-1.56-0.56-2.4
				l1.85-6.19c0.49-1.66,0.08-3.46-1.08-4.76l-3.85-4.25c1.31-0.76,2.44-1.8,3.3-3.05c1.32-1.96,3.47-3.2,5.83-3.35l3.41-0.2
				L-259.51,66.32z M-253.08,59.91l0.32,0.94c0.02,0.07,0.02,0.12,0.04,0.13l-9.54,0.57c-3.12,0.19-5.98,1.83-7.73,4.42
				c-0.89,1.32-2.17,2.34-3.67,2.9l-0.02,0.01c-0.89,0.32-1.83,0.48-2.77,0.45l-2.27-0.05c-0.05-0.03-0.08-0.07-0.1-0.13l-0.12-0.36
				c-1.12-2.72,0.16-5.82,2.86-6.97l16.46-5.65C-256.79,55.41-253.87,57.08-253.08,59.91z"/>
			<path class="st0" d="M-260.94,86.8c-0.24-0.63-0.94-0.96-1.58-0.73c-0.64,0.23-0.98,0.93-0.76,1.57c0.2,0.63,0.65,1.15,1.25,1.45
				c0.6,0.29,1.29,0.33,1.91,0.1c0.65-0.23,0.99-0.94,0.77-1.6C-259.58,86.94-260.29,86.59-260.94,86.8z"/>
			<path class="st0" d="M-257.03,82.87c-0.65,0.22-0.99,0.93-0.77,1.58c0.22,0.65,0.93,0.99,1.58,0.77c0.63-0.2,1.15-0.65,1.45-1.25
				c0.29-0.6,0.33-1.29,0.1-1.91c-0.22-0.65-0.93-0.99-1.58-0.77C-256.91,81.51-257.26,82.22-257.03,82.87z"/>
			<path class="st0" d="M-261.01,78.94c-0.24-0.63-0.94-0.96-1.58-0.73s-0.97,0.93-0.76,1.57c0.2,0.63,0.65,1.15,1.25,1.45
				c0.6,0.29,1.29,0.33,1.91,0.1c0.65-0.23,0.99-0.94,0.77-1.6C-259.65,79.08-260.35,78.73-261.01,78.94z"/>
		</g>
	</g>
</g>
<path class="st0" d="M-190.46,34.78l-4.54-1.04l0.97-4.2l0,0c1.09,0.25,2.17-0.43,2.42-1.52l0.83-3.61
	c0.25-1.09-0.43-2.17-1.52-2.42l-13.36-3.08c-1.09-0.25-2.17,0.43-2.42,1.52l-0.83,3.62c-0.25,1.09,0.43,2.17,1.52,2.42l0,0
	l-0.97,4.2l-4.58-1.06c-2.96-0.68-5.92,1.17-6.6,4.13l-0.45,1.94c-0.14,0.62,0.24,1.23,0.86,1.38c0.62,0.14,1.23-0.24,1.38-0.86
	l0.45-1.94c0.4-1.73,2.12-2.81,3.85-2.41l22.47,5.17c1.73,0.4,2.81,2.12,2.41,3.85l-4.73,20.54c-0.4,1.73-2.12,2.81-3.85,2.41
	l-4-0.92c-0.62-0.14-1.23,0.24-1.38,0.86c-0.14,0.62,0.24,1.23,0.86,1.38l3.33,0.77l-0.26,1.11l-21.06-4.85l0.26-1.11l12.3,2.83
	c0.62,0.14,1.24-0.24,1.38-0.86c0.14-0.62-0.24-1.24-0.86-1.38l-13.05-3c-1.73-0.4-2.81-2.12-2.41-3.85l3.08-13.38
	c0.14-0.62-0.24-1.23-0.86-1.38c-0.62-0.14-1.24,0.24-1.38,0.86l-3.08,13.38c-0.56,2.44,0.6,4.89,2.69,6.05l-0.34,1.46
	c-2.34,0.01-4.46,1.62-5.01,4c-0.55,2.38,0.65,4.76,2.75,5.79l-0.32,1.38c-2.34,0.01-4.46,1.62-5.01,4
	c-0.55,2.38,0.65,4.76,2.75,5.79l-0.31,1.33l-2.01-0.46c-1.03-0.24-2.06,0.41-2.3,1.44l-0.5,2.18c-0.68,2.96,1.17,5.92,4.13,6.6
	l22.47,5.17c2.96,0.68,5.92-1.17,6.6-4.13l0.5-2.18c0.24-1.03-0.41-2.06-1.44-2.3l-1.93-0.44l0.31-1.35c2.3-0.05,4.38-1.65,4.92-4
	c0.54-2.35-0.62-4.7-2.67-5.75l0.33-1.42c2.3-0.05,4.38-1.65,4.92-4c0.54-2.35-0.62-4.7-2.67-5.75l0.35-1.5
	c2.35-0.17,4.42-1.85,4.98-4.26l4.73-20.54C-185.64,38.43-187.5,35.47-190.46,34.78z M-205.89,21.21l12.82,2.95l-0.71,3.08
	l-12.82-2.95L-205.89,21.21z M-205.14,26.98l8.88,2.04l-0.97,4.2l-8.88-2.04L-205.14,26.98z M-222.21,73.34l0.26-1.11l21.06,4.85
	l-0.26,1.11L-222.21,73.34z M-200.88,94.36c-0.4,1.73-2.12,2.81-3.85,2.41l-22.47-5.17c-1.73-0.4-2.81-2.12-2.41-3.85l0.42-1.81
	l28.73,6.61L-200.88,94.36z M-224.8,84.59l0.28-1.2l21.06,4.85l-0.28,1.2L-224.8,84.59z M-198.51,84.09
	c-0.35,1.54-1.89,2.5-3.43,2.15l-23.15-5.33c-1.54-0.35-2.5-1.89-2.15-3.43c0.35-1.54,1.89-2.5,3.43-2.15l23.15,5.33
	C-199.12,81.01-198.16,82.55-198.51,84.09z M-195.94,72.92c-0.35,1.54-1.89,2.5-3.43,2.15l-23.15-5.33
	c-1.54-0.35-2.5-1.89-2.15-3.43s1.89-2.5,3.43-2.15l23.15,5.33C-196.55,69.84-195.59,71.38-195.94,72.92z"/>
<path class="st0" d="M-80.45,42.64c-0.07-0.36-0.31-0.67-0.66-0.81l-23.22-9.42c-0.39-0.16-0.83-0.08-1.14,0.21l-9.05,8.4
	l-23.04,9.34c0,0,0,0.01-0.01,0.01c-0.12,0.05-0.23,0.12-0.32,0.2l-9.19,8.54c-0.44,0.41-0.46,1.09-0.05,1.53
	c0.11,0.11,0.24,0.21,0.38,0.26l8.52,3.46v15.44c0,0.43,0.26,0.82,0.65,0.99l23.22,10.1c0.27,0.12,0.58,0.12,0.84,0
	c0,0,0.01,0.01,0.02,0l23.22-10.09c0.39-0.17,0.65-0.56,0.65-0.99V51.84l8.85-8.22C-80.51,43.37-80.38,43-80.45,42.64z
	 M-112.85,59.19V43.56l19.26,7.81L-112.85,59.19z M-115.01,43.56v15.63l-19.26-7.81L-115.01,43.56z M-136.92,52.63l21.01,8.52
	l-7.45,6.92l-13.37-5.42l-0.01,0l-7.63-3.1L-136.92,52.63z M-136.07,65.25l12.54,5.08c0.39,0.16,0.84,0.08,1.14-0.21l7.38-6.85
	v24.99l-21.06-9.15V65.25z M-112.85,88.26V61.52l21.06-8.54V79.1L-112.85,88.26z M-90.94,50.11l-21.01-8.52l7.45-6.92l21.01,8.52
	L-90.94,50.11z"/>
<g>
	<path class="st0" d="M-105.33,87.15c0.5,0.45,1.26,0.4,1.71-0.09c0.44-0.5,0.4-1.26-0.09-1.71c0,0-0.28-0.28,0.19-0.96
		c1.31-1.89,0.49-3.59-0.13-4.23c-0.46-0.48-1.23-0.49-1.71-0.03c-0.48,0.46-0.49,1.23-0.03,1.71c0.02,0.02,0.39,0.42-0.13,1.17
		C-106.86,84.96-105.98,86.57-105.33,87.15z"/>
	<path class="st0" d="M-74.77,74.34c0.5,0.45,1.26,0.4,1.71-0.09c0.44-0.5,0.4-1.26-0.09-1.71c0,0-0.28-0.28,0.19-0.96
		c1.31-1.89,0.49-3.59-0.13-4.23c-0.46-0.48-1.23-0.49-1.71-0.03c-0.48,0.46-0.49,1.23-0.03,1.71c0.02,0.02,0.39,0.42-0.13,1.17
		C-76.3,72.14-75.42,73.76-74.77,74.34z"/>
	<path class="st0" d="M-66.23,66.08c0.5,0.45,1.26,0.4,1.71-0.09c0.44-0.5,0.4-1.26-0.09-1.71c0,0-0.28-0.28,0.19-0.96
		c1.31-1.89,0.49-3.59-0.13-4.23c-0.46-0.48-1.23-0.49-1.71-0.03c-0.48,0.46-0.49,1.23-0.03,1.71c0.02,0.02,0.39,0.42-0.13,1.17
		C-67.76,63.89-66.88,65.5-66.23,66.08z"/>
	<path class="st0" d="M-54,110.07c0,0.67,0.54,1.21,1.21,1.21h21.72c1.06,0,1.86-0.97,1.65-2c-0.21-1.04-0.81-1.94-1.67-2.54
		c0.3-3.28-2.13-6.11-5.31-6.42c-0.04,0-0.07,0-0.1-0.01c-0.45-0.98-1.18-1.82-2.11-2.38c0.72-5.45-4.08-10.03-9.5-9.03
		c-0.86-2.3-2.89-4.02-5.3-4.48c-0.33-1.97-1.31-3.71-2.71-5l0.48-1.8c0.37-1.36-0.3-2.77-1.52-3.37l1.03-3.83
		c0.47-0.06,0.88-0.4,1.01-0.88c0.17-0.64-0.21-1.31-0.85-1.48l-0.72-0.19c-5.16-1.38,1.37,0.37-3.79-1.02
		c-0.64-0.17-1.31,0.21-1.48,0.85c-0.13,0.49,0.05,0.98,0.43,1.27l-1.03,3.83c-1.36-0.09-2.64,0.79-3,2.15l-0.87,3.26
		c-0.95,0.54-1.81,1.25-2.51,2.11c-1.19-0.47-2.48-0.51-3.64-0.17c-0.95-1.16-2.19-2.05-3.6-2.57c-0.63-0.23-1.32,0.09-1.55,0.71
		c-0.23,0.63,0.09,1.32,0.71,1.55c1.06,0.39,1.98,1.07,2.68,1.97c0.54,0.7,1.47,0.98,2.3,0.7c0.76-0.26,1.63-0.23,2.41,0.14
		c0.84,0.4,1.85,0.16,2.4-0.58c3.44-4.64,10.71-2.7,11.48,2.92c0.13,0.91,0.83,1.63,1.75,1.77c1.74,0.28,3.21,1.54,3.73,3.23
		c0.31,0.99,1.34,1.57,2.36,1.34c3.8-0.89,7.35,2.23,6.94,6.13c-0.09-0.03-0.18-0.05-0.27-0.07c-1.06-5.1-7.55-6.88-11.05-2.92
		c-0.7-0.23-1.48-0.27-2.23-0.1c-1.17-1.32-2.82-2.06-4.59-2.06c-2.56,0-4.8,1.55-5.72,3.9c-3.6-0.46-7,1.66-8.24,4.99
		c-0.14,0-0.33,0-0.46,0.01c-0.35,0.02-0.72,0.09-0.88,0.14h-15.31c2.17-3.27,6-2.24,5.48-2.33c0.95,0.17,1.9-0.38,2.19-1.32
		c0.92-2.95,4.76-3.6,6.62-1.19c0.47,0.61,1.28,0.85,2,0.61c0.45-0.15,0.96-0.12,1.39,0.08c0.6,0.29,1.32,0.03,1.61-0.57
		c0.29-0.6,0.03-1.32-0.57-1.61c-0.89-0.43-1.88-0.51-2.79-0.31c-2.61-2.96-7.29-2.74-9.62,0.4l-0.1-0.36
		c-0.37-1.36-1.64-2.24-3-2.15l-1.03-3.83c0.37-0.29,0.56-0.78,0.43-1.27c-0.17-0.64-0.83-1.03-1.48-0.85l-0.72,0.19c0,0,0,0,0,0
		l-3.08,0.82l0,0l-0.72,0.19c-0.64,0.17-1.03,0.83-0.85,1.48c0.13,0.49,0.54,0.82,1.01,0.88l1.03,3.83
		c-1.19,0.59-1.9,1.98-1.52,3.37l1.03,3.83c-0.01,0.03-0.03,0.07-0.04,0.1h-16.87c-0.01,0-0.04,0-0.07-0.04
		c-0.02-0.03-0.02-0.05-0.01-0.06c0.49-1.76,1.98-3.63,3.77-3.63h0c0.95,0,1.82-0.69,1.92-1.64c0.26-2.24,2.35-3.81,4.58-3.42
		c0.95,0.17,1.87-0.41,2.13-1.35c1.15-4.1,5.29-6.75,9.57-5.97c1.12,0.2,2.22-0.45,2.56-1.53c0.5-1.59,1.64-2.91,3.15-3.64
		c0.6-0.29,0.85-1.01,0.57-1.61c-0.29-0.6-1.01-0.85-1.61-0.57c-2.06,0.99-3.64,2.79-4.36,4.95c-5.33-0.91-10.43,2.29-12.06,7.27
		c-0.21-0.02-0.41-0.03-0.62-0.03c-3.06,0-5.66,2.17-6.23,5.13c-2.82,0.23-4.98,2.82-5.7,5.38c-0.44,1.59,0.76,3.16,2.41,3.16h31.89
		c-0.16,0.31-0.28,0.63-0.37,0.97c-1.96,0.31-3.44,2.12-3.94,3.92c-0.37,1.33,0.63,2.64,2.01,2.64h21.31c0.67,0,1.21-0.54,1.21-1.21
		c0-0.67-0.54-1.21-1.21-1.21h-20.85c0.39-0.93,1.19-1.77,2.05-1.77h0c0.82,0,1.59-0.59,1.69-1.46c0.19-1.66,1.84-2,1.62-1.93
		c0.53-0.16,0.93-0.08,1.15-0.05c0.81,0.1,1.57-0.41,1.8-1.21c0.74-2.62,3.37-4.29,6.09-3.8c0.96,0.18,1.9-0.39,2.18-1.31
		c0.49-1.56,1.92-2.62,3.56-2.62c1.16,0,2.23,0.53,2.95,1.45c0.48,0.62,1.28,0.84,1.99,0.6c0.44-0.15,0.94-0.12,1.35,0.08
		c0.74,0.35,1.63,0.14,2.11-0.52c2.13-2.87,6.66-1.68,7.14,1.82c0.11,0.77,0.7,1.41,1.51,1.53c1.05,0.16,1.92,0.93,2.24,1.94
		c0.18,0.59,0.67,1.02,1.25,1.17c0.72,0.18,0.95-0.16,1.96-0.07c1.96,0.18,3.42,1.98,3.11,4c-0.12,0.77,0.25,1.53,0.92,1.91
		c0.12,0.07,0.22,0.14,0.32,0.23h-20.51C-53.46,108.86-54,109.4-54,110.07z M-63.68,77.19l0.43-1.62c0.07-0.26,0.35-0.42,0.61-0.35
		c0.98,0.26,2-0.32,2.26-1.3l1.14-4.24l0.74,0.2l-1.14,4.24c-0.26,0.98,0.32,2,1.3,2.26c0.26,0.07,0.42,0.35,0.35,0.61l-0.26,0.97
		C-59.94,77.11-61.89,76.86-63.68,77.19z M-86.46,95c0.26-0.07,0.54,0.09,0.61,0.35l0.31,1.15c-1.92,0.08-3.71,0.84-5.08,2.13
		l-0.5-1.87c-0.07-0.26,0.09-0.54,0.35-0.61c0.48-0.13,0.87-0.43,1.12-0.86c0.25-0.43,0.31-0.92,0.18-1.4l-1.14-4.24l0.74-0.2
		l1.14,4.24C-88.46,94.68-87.44,95.27-86.46,95z"/>
	<path class="st0" d="M-96.71,79.99c0.5,0.45,1.26,0.4,1.71-0.09c0.45-0.5,0.4-1.26-0.09-1.71c0,0-0.28-0.28,0.19-0.96
		c1.31-1.89,0.49-3.59-0.13-4.23c-0.46-0.48-1.23-0.49-1.71-0.03c-0.48,0.46-0.49,1.23-0.03,1.71c0.02,0.02,0.39,0.42-0.13,1.17
		C-98.24,77.79-97.37,79.41-96.71,79.99z"/>
	<path class="st0" d="M-87.28,74.72c0.5,0.45,1.26,0.4,1.71-0.09c0.45-0.5,0.4-1.26-0.09-1.71c0,0-0.28-0.28,0.19-0.96
		c1.31-1.89,0.49-3.59-0.13-4.23c-0.46-0.48-1.23-0.49-1.71-0.03c-0.48,0.46-0.49,1.23-0.03,1.71c0.02,0.02,0.39,0.42-0.13,1.17
		C-88.81,72.52-87.93,74.13-87.28,74.72z"/>
	<path class="st0" d="M-50.2,82.3c0.5,0.45,1.26,0.4,1.71-0.09c0.45-0.5,0.4-1.26-0.09-1.71c0,0-0.28-0.28,0.19-0.96
		c1.31-1.89,0.49-3.59-0.13-4.23c-0.46-0.48-1.23-0.49-1.71-0.03c-0.48,0.46-0.49,1.23-0.03,1.71c0.02,0.02,0.39,0.42-0.13,1.17
		C-51.73,80.1-50.85,81.72-50.2,82.3z"/>
</g>
<g>
	<g>
		<g>
			<path class="st1" d="M39.26,11.27c-14.98,0-27.12,12.14-27.12,27.12s12.14,27.12,27.12,27.12s27.12-12.14,27.12-27.12
				C66.36,23.42,54.23,11.29,39.26,11.27z M63.59,45.35l-1.7-0.55l-0.56,1.72l1.71,0.55c-0.71,1.92-1.64,3.76-2.79,5.46l-1.45-1.05
				l-1.06,1.46l1.44,1.04c-1.26,1.61-2.72,3.07-4.33,4.33l-1.04-1.44l-1.46,1.06l1.05,1.45c-1.7,1.15-3.53,2.08-5.45,2.79
				l-0.55-1.71l-1.72,0.56l0.55,1.7c-1.97,0.56-4.01,0.89-6.06,0.96V61.9h-1.81v1.79c-2.05-0.07-4.08-0.39-6.05-0.96l0.55-1.7
				l-1.72-0.56l-0.56,1.71c-1.92-0.71-3.76-1.64-5.46-2.79l1.05-1.45l-1.46-1.06l-1.04,1.44c-1.61-1.26-3.07-2.72-4.33-4.33
				l1.44-1.04l-1.06-1.46l-1.45,1.05c-1.14-1.7-2.08-3.53-2.78-5.45l1.71-0.55l-0.56-1.72l-1.7,0.55c-0.57-1.97-0.89-4.01-0.96-6.06
				h1.79v-1.81h-1.79c0.07-2.05,0.39-4.08,0.96-6.05l1.7,0.55l0.56-1.72l-1.7-0.56c0.71-1.92,1.64-3.76,2.79-5.46l1.45,1.05
				l1.06-1.46l-1.44-1.04c1.26-1.61,2.72-3.07,4.33-4.33l1.04,1.44l1.46-1.06l-1.05-1.45c1.7-1.14,3.53-2.08,5.45-2.78l0.55,1.71
				l1.72-0.56l-0.55-1.7c1.97-0.57,4.01-0.89,6.06-0.96v1.79h1.81V13.1c2.05,0.07,4.08,0.39,6.05,0.96l-0.55,1.7l1.72,0.56l0.56-1.7
				c1.92,0.71,3.76,1.64,5.46,2.79l-1.05,1.45l1.46,1.06l1.04-1.44c1.61,1.26,3.07,2.72,4.33,4.33l-1.44,1.04l1.06,1.46l1.45-1.05
				c1.15,1.7,2.08,3.52,2.79,5.45l-1.71,0.55l0.56,1.72l1.7-0.55c0.56,1.97,0.89,4.01,0.96,6.06h-1.79v1.81h1.79
				C64.48,41.35,64.16,43.38,63.59,45.35z"/>
		</g>
	</g>
	<g>
		<g>
			<path class="st1" d="M39.26,18.5c-10.99,0-19.89,8.91-19.89,19.89s8.91,19.89,19.89,19.89s19.89-8.91,19.89-19.89
				C59.13,27.41,50.24,18.52,39.26,18.5z M39.26,56.48c-9.99,0-18.08-8.1-18.08-18.08s8.1-18.08,18.08-18.08s18.08,8.1,18.08,18.08
				C57.33,48.38,49.24,56.47,39.26,56.48z"/>
		</g>
	</g>
	<g>
		<g>
			<path class="st1" d="M39.26,23.02c-8.49,0-15.37,6.88-15.37,15.37s6.88,15.37,15.37,15.37s15.37-6.88,15.37-15.37
				C54.62,29.91,47.74,23.03,39.26,23.02z M50.88,31.45c1.05,1.74,1.69,3.71,1.87,5.73l-5.66-0.46c-0.5-0.04-0.87-0.48-0.83-0.98
				c0.02-0.24,0.13-0.45,0.31-0.61L50.88,31.45z M42.28,25.18l-2.18,5.24c-0.19,0.46-0.72,0.68-1.18,0.49
				c-0.22-0.09-0.39-0.27-0.49-0.49l-2.18-5.24C38.22,24.72,40.29,24.72,42.28,25.18z M27.63,31.45l4.3,3.69
				c0.38,0.32,0.42,0.9,0.1,1.27c-0.16,0.18-0.38,0.29-0.61,0.31l-5.66,0.46C25.94,35.16,26.58,33.19,27.63,31.45z M35.24,45.33
				l-1.31,5.53c-1.87-0.81-3.54-2.02-4.87-3.56h0l4.84-2.95c0.43-0.26,0.98-0.13,1.24,0.3C35.26,44.86,35.3,45.1,35.24,45.33z
				 M44.58,50.86L44.58,50.86l-1.32-5.53c-0.12-0.49,0.18-0.97,0.67-1.09c0.23-0.06,0.48-0.02,0.68,0.11l4.84,2.95
				C48.12,48.84,46.45,50.06,44.58,50.86z M45.56,42.81c-1.28-0.78-2.95-0.38-3.73,0.9c-0.37,0.61-0.49,1.34-0.32,2.04l1.36,5.7
				c-2.36,0.67-4.86,0.67-7.21,0h0l1.36-5.7c0.35-1.46-0.55-2.92-2.01-3.27c-0.7-0.17-1.43-0.05-2.04,0.32l-5,3.05
				c-1.35-2.04-2.12-4.42-2.22-6.86l5.84-0.47c1.49-0.12,2.6-1.43,2.48-2.92c-0.06-0.71-0.4-1.37-0.94-1.84l-4.45-3.82
				c1.53-1.91,3.54-3.38,5.84-4.24l2.25,5.41c0.58,1.38,2.16,2.04,3.55,1.46c0.66-0.28,1.19-0.8,1.46-1.46l2.25-5.41
				c2.29,0.86,4.31,2.33,5.84,4.24l-4.44,3.82c-1.14,0.98-1.27,2.69-0.29,3.82c0.47,0.54,1.13,0.88,1.84,0.94L52.79,39
				c-0.1,2.45-0.87,4.82-2.22,6.86L45.56,42.81z"/>
		</g>
	</g>
	<g>
		<g>
			<path class="st1" d="M39.26,34.78c-2,0-3.62,1.62-3.62,3.62c0,2,1.62,3.62,3.62,3.62c2,0,3.62-1.62,3.62-3.62
				C42.87,36.4,41.25,34.78,39.26,34.78z M39.26,40.2c-1,0-1.81-0.81-1.81-1.81c0-1,0.81-1.81,1.81-1.81c1,0,1.81,0.81,1.81,1.81
				C41.06,39.39,40.26,40.2,39.26,40.2z"/>
		</g>
	</g>
</g>
<g>
	<path class="st0" d="M105.03,108.71c0.62-0.19,0.96-0.84,0.78-1.45c-0.19-0.62-0.84-0.96-1.45-0.78c-0.62,0.19-0.96,0.84-0.78,1.45
		C103.76,108.55,104.42,108.89,105.03,108.71z"/>
	<path class="st0" d="M86.51,114.33c0.62-0.19,0.96-0.84,0.78-1.45c-0.19-0.62-0.84-0.96-1.45-0.78c-0.62,0.19-0.96,0.84-0.78,1.45
		C85.24,114.17,85.89,114.52,86.51,114.33z"/>
	<path class="st0" d="M107.03,69.57c-0.29-0.21-0.67-0.27-1.01-0.16L65.84,81.6l-5.83-10.04c-0.82-1.41-2.48-2.07-4.04-1.59
		L49.28,72c-1.85,0.56-2.89,2.52-2.33,4.36s2.52,2.89,4.36,2.33l4.04-1.23l19.06,32.84c0.82,1.41,2.48,2.07,4.04,1.59l2.24-0.68
		c-0.42,1.15-0.48,2.43-0.1,3.69c0.93,3.08,4.2,4.82,7.27,3.89c3.08-0.93,4.82-4.2,3.89-7.27c-0.38-1.26-1.15-2.29-2.14-3.01
		l9.6-2.92c-0.42,1.15-0.48,2.43-0.1,3.69c0.93,3.08,4.2,4.82,7.27,3.89c3.08-0.93,4.82-4.2,3.89-7.27
		c-0.38-1.26-1.15-2.29-2.14-3.01l0,0c1.85-0.56,2.89-2.52,2.33-4.36c-0.56-1.85-2.52-2.89-4.36-2.33l-27.03,8.21l-2.41-4.15
		l6.54-1.99l0,0l0,0l16.29-4.95l0,0l0,0l6.4-1.94c1.54-0.47,2.56-1.92,2.48-3.52l-0.87-17.39C107.51,70.1,107.32,69.77,107.03,69.57
		z M105.63,79.27l-7.13,2.16l-1.2-6.95l7.96-2.42L105.63,79.27z M93.11,85.51l3.53-1.07l1.2,6.95l-6.05,1.84l-1.02-3.35
		c-0.19-0.62-0.84-0.96-1.45-0.78c-0.62,0.19-0.96,0.84-0.78,1.45l1.02,3.35l-6.05,1.84l-2.87-6.44l3.53-1.07
		c0.62-0.19,0.96-0.84,0.78-1.45c-0.19-0.62-0.84-0.96-1.45-0.78l-3.81,1.16l-2.87-6.44l8-2.43l1.02,3.35
		c0.19,0.62,0.84,0.96,1.45,0.78c0.62-0.19,0.96-0.84,0.78-1.45l-1.02-3.35l8-2.43l1.2,6.95l-3.81,1.16
		c-0.62,0.19-0.96,0.84-0.78,1.45C91.85,85.35,92.5,85.7,93.11,85.51z M75.47,98.18l-3.61-6.22l6.55-1.99l2.87,6.44L75.47,98.18z
		 M74.58,81.39l2.87,6.44l-6.79,2.06l-3.61-6.22L74.58,81.39z M89.52,112.2c0.56,1.85-0.49,3.8-2.33,4.36s-3.8-0.49-4.36-2.33
		c-0.56-1.85,0.49-3.8,2.33-4.36C87,109.31,88.95,110.35,89.52,112.2z M108.04,106.57c0.56,1.85-0.49,3.8-2.33,4.36
		c-1.85,0.56-3.8-0.49-4.36-2.33c-0.56-1.85,0.49-3.8,2.33-4.36C105.52,103.68,107.48,104.73,108.04,106.57z M106.79,98.42
		c0.62-0.19,1.27,0.16,1.45,0.78c0.19,0.62-0.16,1.27-0.78,1.45l-29.69,9.01c-0.52,0.16-1.07-0.06-1.35-0.53L56.45,74.7l-5.81,1.76
		c-0.62,0.19-1.27-0.16-1.45-0.78c-0.19-0.62,0.16-1.27,0.78-1.45l6.7-2.03c0.52-0.16,1.07,0.06,1.35,0.53l15.89,27.39
		c0,0,0,0,0,0.01l4.09,7.04L106.79,98.42z M106.06,87.97c0.03,0.54-0.31,1.02-0.83,1.18l-5.14,1.56l-1.2-6.95l6.85-2.08
		L106.06,87.97z"/>
	<path class="st0" d="M87.97,84.63c-0.62,0.19-0.96,0.84-0.78,1.45c0.19,0.62,0.84,0.96,1.45,0.78c0.62-0.19,0.96-0.84,0.78-1.45
		C89.24,84.79,88.59,84.45,87.97,84.63z"/>
</g>
<g>
	<g>
		<path class="st2" d="M98.22,53.71L82.7,47.4c-2.48-1.01-3.68-3.86-2.67-6.34l2.84-6.97c2.31-5.69,8.86-8.45,14.55-6.14l3.84,1.56
			c5.69,2.31,8.45,8.86,6.14,14.55l-2.84,6.97C103.55,53.51,100.7,54.72,98.22,53.71z"/>
		<path class="st3" d="M95.35,27.02c0,0,11.82,4.81,13.31,5.41c1.49,0.6,5.51,1.37,7.32-3.09"/>
		<path class="st4" d="M102.68,30.09l-7.43-3.02l-0.33-6.68c0.12-1.85,2.01-3.04,3.73-2.34l7.89,3.21c1.72,0.7,2.24,2.87,1.04,4.28
			L102.68,30.09z"/>
	</g>
</g>
</svg>
