<?xml version="1.0" encoding="utf-8"?>
<!-- Generator: Adobe Illustrator 23.0.1, SVG Export Plug-In . SVG Version: 6.00 Build 0)  -->
<svg version="1.1" id="Calque_1" xmlns="http://www.w3.org/2000/svg" xmlns:xlink="http://www.w3.org/1999/xlink" x="0px" y="0px"
	 viewBox="0 0 130 130" style="enable-background:new 0 0 130 130;" xml:space="preserve">
<style type="text/css">
	.st0{fill:#2B2B2B;}
</style>
<path class="st0" d="M69.55,42.64c-0.07-0.36-0.31-0.67-0.66-0.81l-23.22-9.42c-0.39-0.16-0.83-0.08-1.14,0.21l-9.05,8.4
	l-23.04,9.34c0,0,0,0.01-0.01,0.01c-0.12,0.05-0.23,0.12-0.32,0.2l-9.19,8.54c-0.44,0.41-0.46,1.09-0.05,1.53
	c0.11,0.11,0.24,0.21,0.38,0.26l8.52,3.46v15.44c0,0.43,0.26,0.82,0.65,0.99l23.22,10.1c0.27,0.12,0.58,0.12,0.84,0
	c0,0,0.01,0.01,0.02,0L59.72,80.8c0.39-0.17,0.65-0.56,0.65-0.99V51.84l8.85-8.22C69.49,43.37,69.62,43,69.55,42.64z M37.15,59.19
	V43.56l19.26,7.81L37.15,59.19z M34.99,43.56v15.63l-19.26-7.81L34.99,43.56z M13.08,52.63l21.01,8.52l-7.45,6.92l-13.37-5.42
	l-0.01,0l-7.63-3.1L13.08,52.63z M13.93,65.25l12.54,5.08c0.39,0.16,0.84,0.08,1.14-0.21l7.38-6.85v24.99L13.93,79.1L13.93,65.25z
	 M37.15,88.26V61.52l21.06-8.54V79.1L37.15,88.26z M59.06,50.11l-21.01-8.52l7.45-6.92l21.01,8.52L59.06,50.11z"/>
<g>
	<path class="st0" d="M44.67,87.15c0.5,0.45,1.26,0.4,1.71-0.09c0.44-0.5,0.4-1.26-0.09-1.71c0,0-0.28-0.28,0.19-0.96
		c1.31-1.89,0.49-3.59-0.13-4.23c-0.46-0.48-1.23-0.49-1.71-0.03c-0.48,0.46-0.49,1.23-0.03,1.71c0.02,0.02,0.39,0.42-0.13,1.17
		C43.14,84.96,44.02,86.57,44.67,87.15z"/>
	<path class="st0" d="M75.23,74.34c0.5,0.45,1.26,0.4,1.71-0.09c0.44-0.5,0.4-1.26-0.09-1.71c0,0-0.28-0.28,0.19-0.96
		c1.31-1.89,0.49-3.59-0.13-4.23c-0.46-0.48-1.23-0.49-1.71-0.03c-0.48,0.46-0.49,1.23-0.03,1.71c0.02,0.02,0.39,0.42-0.13,1.17
		C73.7,72.14,74.58,73.76,75.23,74.34z"/>
	<path class="st0" d="M83.77,66.08c0.5,0.45,1.26,0.4,1.71-0.09c0.44-0.5,0.4-1.26-0.09-1.71c0,0-0.28-0.28,0.19-0.96
		c1.31-1.89,0.49-3.59-0.13-4.23c-0.46-0.48-1.23-0.49-1.71-0.03c-0.48,0.46-0.49,1.23-0.03,1.71c0.02,0.02,0.39,0.42-0.13,1.17
		C82.24,63.89,83.12,65.5,83.77,66.08z"/>
	<path class="st0" d="M96,110.07c0,0.67,0.54,1.21,1.21,1.21h21.72c1.06,0,1.86-0.97,1.65-2c-0.21-1.04-0.81-1.94-1.67-2.54
		c0.3-3.28-2.13-6.11-5.31-6.42c-0.04,0-0.07,0-0.1-0.01c-0.45-0.98-1.18-1.82-2.11-2.38c0.72-5.45-4.08-10.03-9.5-9.03
		c-0.86-2.3-2.89-4.02-5.3-4.48c-0.33-1.97-1.31-3.71-2.71-5l0.48-1.8c0.37-1.36-0.3-2.77-1.52-3.37l1.03-3.83
		c0.47-0.06,0.88-0.4,1.01-0.88c0.17-0.64-0.21-1.31-0.85-1.48l-0.72-0.19c-5.16-1.38,1.37,0.37-3.79-1.02
		c-0.64-0.17-1.31,0.21-1.48,0.85c-0.13,0.49,0.05,0.98,0.43,1.27l-1.03,3.83c-1.36-0.09-2.64,0.79-3,2.15l-0.87,3.26
		c-0.95,0.54-1.81,1.25-2.51,2.11c-1.19-0.47-2.48-0.51-3.64-0.17c-0.95-1.16-2.19-2.05-3.6-2.57c-0.63-0.23-1.32,0.09-1.55,0.71
		c-0.23,0.63,0.09,1.32,0.71,1.55c1.06,0.39,1.98,1.07,2.68,1.97c0.54,0.7,1.47,0.98,2.3,0.7c0.76-0.26,1.63-0.23,2.41,0.14
		c0.84,0.4,1.85,0.16,2.4-0.58c3.44-4.64,10.71-2.7,11.48,2.92c0.13,0.91,0.83,1.63,1.75,1.77c1.74,0.28,3.21,1.54,3.73,3.23
		c0.31,0.99,1.34,1.57,2.36,1.34c3.8-0.89,7.35,2.23,6.94,6.13c-0.09-0.03-0.18-0.05-0.27-0.07c-1.06-5.1-7.55-6.88-11.05-2.92
		c-0.7-0.23-1.48-0.27-2.23-0.1c-1.17-1.32-2.82-2.06-4.59-2.06c-2.56,0-4.8,1.55-5.72,3.9c-3.6-0.46-7,1.66-8.24,4.99
		c-0.14,0-0.33,0-0.46,0.01c-0.35,0.02-0.72,0.09-0.88,0.14H60.26c2.17-3.27,6-2.24,5.48-2.33c0.95,0.17,1.9-0.38,2.19-1.32
		c0.92-2.95,4.76-3.6,6.62-1.19c0.47,0.61,1.28,0.85,2,0.61c0.45-0.15,0.96-0.12,1.39,0.08c0.6,0.29,1.32,0.03,1.61-0.57
		c0.29-0.6,0.03-1.32-0.57-1.61c-0.89-0.43-1.88-0.51-2.79-0.31c-2.61-2.96-7.29-2.74-9.62,0.4l-0.1-0.36
		c-0.37-1.36-1.64-2.24-3-2.15l-1.03-3.83c0.37-0.29,0.56-0.78,0.43-1.27c-0.17-0.64-0.83-1.03-1.48-0.85l-0.72,0.19c0,0,0,0,0,0
		l-3.08,0.82l0,0l-0.72,0.19c-0.64,0.17-1.03,0.83-0.85,1.48c0.13,0.49,0.54,0.82,1.01,0.88l1.03,3.83
		c-1.19,0.59-1.9,1.98-1.52,3.37l1.03,3.83c-0.01,0.03-0.03,0.07-0.04,0.1H40.67c-0.01,0-0.04,0-0.07-0.04
		c-0.02-0.03-0.02-0.05-0.01-0.06c0.49-1.76,1.98-3.63,3.77-3.63h0c0.95,0,1.82-0.69,1.92-1.64c0.26-2.24,2.35-3.81,4.58-3.42
		c0.95,0.17,1.87-0.41,2.13-1.35c1.15-4.1,5.29-6.75,9.57-5.97c1.12,0.2,2.22-0.45,2.56-1.53c0.5-1.59,1.64-2.91,3.15-3.64
		c0.6-0.29,0.85-1.01,0.57-1.61c-0.29-0.6-1.01-0.85-1.61-0.57c-2.06,0.99-3.64,2.79-4.36,4.95c-5.33-0.91-10.43,2.29-12.06,7.27
		c-0.21-0.02-0.41-0.03-0.62-0.03c-3.06,0-5.66,2.17-6.23,5.13c-2.82,0.23-4.98,2.82-5.7,5.38c-0.44,1.59,0.76,3.16,2.41,3.16h31.89
		c-0.16,0.31-0.28,0.63-0.37,0.97c-1.96,0.31-3.44,2.12-3.94,3.92c-0.37,1.33,0.63,2.64,2.01,2.64h21.31c0.67,0,1.21-0.54,1.21-1.21
		c0-0.67-0.54-1.21-1.21-1.21H70.72c0.39-0.93,1.19-1.77,2.05-1.77h0c0.82,0,1.59-0.59,1.69-1.46c0.19-1.66,1.84-2,1.62-1.93
		c0.53-0.16,0.93-0.08,1.15-0.05c0.81,0.1,1.57-0.41,1.8-1.21c0.74-2.62,3.37-4.29,6.09-3.8c0.96,0.18,1.9-0.39,2.18-1.31
		c0.49-1.56,1.92-2.62,3.56-2.62c1.16,0,2.23,0.53,2.95,1.45c0.48,0.62,1.28,0.84,1.99,0.6c0.44-0.15,0.94-0.12,1.35,0.08
		c0.74,0.35,1.63,0.14,2.11-0.52c2.13-2.87,6.66-1.68,7.14,1.82c0.11,0.77,0.7,1.41,1.51,1.53c1.05,0.16,1.92,0.93,2.24,1.94
		c0.18,0.59,0.67,1.02,1.25,1.17c0.72,0.18,0.95-0.16,1.96-0.07c1.96,0.18,3.42,1.98,3.11,4c-0.12,0.77,0.25,1.53,0.92,1.91
		c0.12,0.07,0.22,0.14,0.32,0.23H97.21C96.54,108.86,96,109.4,96,110.07z M86.32,77.19l0.43-1.62c0.07-0.26,0.35-0.42,0.61-0.35
		c0.98,0.26,2-0.32,2.26-1.3l1.14-4.24l0.74,0.2l-1.14,4.24c-0.26,0.98,0.32,2,1.3,2.26c0.26,0.07,0.42,0.35,0.35,0.61l-0.26,0.97
		C90.06,77.11,88.11,76.86,86.32,77.19z M63.54,95c0.26-0.07,0.54,0.09,0.61,0.35l0.31,1.15c-1.92,0.08-3.71,0.84-5.08,2.13
		l-0.5-1.87c-0.07-0.26,0.09-0.54,0.35-0.61c0.48-0.13,0.87-0.43,1.12-0.86c0.25-0.43,0.31-0.92,0.18-1.4l-1.14-4.24l0.74-0.2
		l1.14,4.24C61.54,94.68,62.56,95.27,63.54,95z"/>
	<path class="st0" d="M53.29,79.99c0.5,0.45,1.26,0.4,1.71-0.09c0.45-0.5,0.4-1.26-0.09-1.71c0,0-0.28-0.28,0.19-0.96
		c1.31-1.89,0.49-3.59-0.13-4.23c-0.46-0.48-1.23-0.49-1.71-0.03c-0.48,0.46-0.49,1.23-0.03,1.71c0.02,0.02,0.39,0.42-0.13,1.17
		C51.76,77.79,52.63,79.41,53.29,79.99z"/>
	<path class="st0" d="M62.72,74.72c0.5,0.45,1.26,0.4,1.71-0.09c0.45-0.5,0.4-1.26-0.09-1.71c0,0-0.28-0.28,0.19-0.96
		c1.31-1.89,0.49-3.59-0.13-4.23c-0.46-0.48-1.23-0.49-1.71-0.03c-0.48,0.46-0.49,1.23-0.03,1.71c0.02,0.02,0.39,0.42-0.13,1.17
		C61.19,72.52,62.07,74.13,62.72,74.72z"/>
	<path class="st0" d="M99.8,82.3c0.5,0.45,1.26,0.4,1.71-0.09c0.45-0.5,0.4-1.26-0.09-1.71c0,0-0.28-0.28,0.19-0.96
		c1.31-1.89,0.49-3.59-0.13-4.23c-0.46-0.48-1.23-0.49-1.71-0.03c-0.48,0.46-0.49,1.23-0.03,1.71c0.02,0.02,0.39,0.42-0.13,1.17
		C98.27,80.1,99.15,81.72,99.8,82.3z"/>
</g>
</svg>
